# xmcd
#
# Track frame offsets: 
#        150
#        6922
#        25125
#        43385
#        58297
#        78418
#        101226
#        117876
#        135796
#        155201
#        175695
#        194819
#        216137
#        238290
#
# Disc length: 3647 seconds
#
# Revision: 0
# Processed by: cddbd v1.4PL0 Copyright (c) Steve Scherf et al.
# Submitted via: ExactAudioCopy v0.90b4
#
DISCID=cc0e3d0e
DTITLE=Michael W. Smith - This is your time
DYEAR=1999
DGENRE=Contemporary Christian
TTITLE0=Rince De
TTITLE1=Hey You It's Me
TTITLE2=Worth It All
TTITLE3=I Will Be Your Friend
TTITLE4=This Is Your Time
TTITLE5=I Will Carry You
TTITLE6=She Walks With Me
TTITLE7=Reach Out To Me
TTITLE8=I Still Have The Dream
TTITLE9=I'm Gone
TTITLE10=Anna
TTITLE11=Everybody Free
TTITLE12=This is Your Time
TTITLE13=Integrity Online Installation
EXTD=
EXTT0=
EXTT1=
EXTT2=
EXTT3=
EXTT4=
EXTT5=
EXTT6=
EXTT7=
EXTT8=
EXTT9=
EXTT10=
EXTT11=
EXTT12=
EXTT13=
PLAYORDER=
